<?xml version="1.0" encoding="UTF-8" standalone="no"?>
<!-- Created with Inkscape (http://www.inkscape.org/) -->

<svg
   xmlns:dc="http://purl.org/dc/elements/1.1/"
   xmlns:cc="http://creativecommons.org/ns#"
   xmlns:rdf="http://www.w3.org/1999/02/22-rdf-syntax-ns#"
   xmlns:svg="http://www.w3.org/2000/svg"
   xmlns="http://www.w3.org/2000/svg"
   xmlns:sodipodi="http://sodipodi.sourceforge.net/DTD/sodipodi-0.dtd"
   xmlns:inkscape="http://www.inkscape.org/namespaces/inkscape"
   version="1.1"
   id="svg2"
   xml:space="preserve"
   width="1089.3333"
   height="170.78934"
   viewBox="0 0 1089.3333 170.78934"
   sodipodi:docname="AWS-iGenomes.svg"
   inkscape:version="0.92.3 (2405546, 2018-03-11)"><metadata
     id="metadata8"><rdf:RDF><cc:Work
         rdf:about=""><dc:format>image/svg+xml</dc:format><dc:type
           rdf:resource="http://purl.org/dc/dcmitype/StillImage" /><dc:title /></cc:Work></rdf:RDF></metadata><defs
     id="defs6"><clipPath
       clipPathUnits="userSpaceOnUse"
       id="clipPath18"><path
         d="M 0,128.092 H 817 V 0 H 0 Z"
         id="path16"
         inkscape:connector-curvature="0" /></clipPath><clipPath
       clipPathUnits="userSpaceOnUse"
       id="clipPath94"><path
         d="M 0,128.092 H 817 V 0 H 0 Z"
         id="path92"
         inkscape:connector-curvature="0" /></clipPath></defs><sodipodi:namedview
     pagecolor="#ffffff"
     bordercolor="#666666"
     borderopacity="1"
     objecttolerance="10"
     gridtolerance="10"
     guidetolerance="10"
     inkscape:pageopacity="0"
     inkscape:pageshadow="2"
     inkscape:window-width="1920"
     inkscape:window-height="1025"
     id="namedview4"
     showgrid="false"
     inkscape:zoom="1.1089352"
     inkscape:cx="457.93832"
     inkscape:cy="96.005972"
     inkscape:window-x="1920"
     inkscape:window-y="74"
     inkscape:window-maximized="1"
     inkscape:current-layer="g10" /><g
     id="g10"
     inkscape:groupmode="layer"
     inkscape:label="AWS-iGenomes"
     transform="matrix(1.3333333,0,0,-1.3333333,0,170.78933)"><g
   id="g12"><g
     id="g14"
     clip-path="url(#clipPath18)"><text
   transform="matrix(1,0,0,-1,20.7222,55.7114)"
   style="font-variant:normal;font-weight:normal;font-stretch:normal;font-size:72px;font-family:Systemskrift;writing-mode:lr-tb;fill:#000000;fill-opacity:1;fill-rule:nonzero;stroke:none"
   id="text22"><tspan
     x="0 48.528 118.224 164.088 184.392 202.104 255.888 297 338.97601 381.52802 444.168 485.28"
     y="0"
     sodipodi:role="line"
     id="tspan20">AWS iGenomes</tspan></text>

</g></g><text
   transform="matrix(1,0,0,-1,20.7222,25.9155)"
   style="font-variant:normal;font-weight:normal;font-stretch:normal;font-size:23.01499939px;font-family:Systemskrift;writing-mode:lr-tb;fill:#636c72;fill-opacity:1;fill-rule:nonzero;stroke:none"
   id="text26"><tspan
     x="0 16.478741 30.080605 50.103657 70.126701 83.728569 97.146317 103.63654 112.40526 125.54682 133.87825 147.01982 155.78853 168.9301 182.34784 195.23625 208.37781 214.86804 228.88417 242.02574 255.44348 269.04535 289.06839 302.20996 314.2468 320.73703 334.40796 348.00983 360.04666 368.40109 381.54266 395.67389 402.16412 415.76596 429.18372 435.67395 451.18607 473.46457 488.12512 494.61536 509.27591"
     y="0"
     sodipodi:role="line"
     id="tspan24">Common reference genomes hosted on AWS S3</tspan></text>

<g
   id="g28"
   transform="translate(637.2383,78.2978)"
   inkscape:export-xdpi="90"
   inkscape:export-ydpi="90"><path
     d="M 0,0 -12.786,4.267 V 22.758 L 0.016,18.965 Z"
     style="fill:#f68d11;fill-opacity:1;fill-rule:nonzero;stroke:none"
     id="path30"
     inkscape:connector-curvature="0" /></g><g
   id="g32"
   transform="translate(640.5728,97.2625)"
   inkscape:export-xdpi="90"
   inkscape:export-ydpi="90"><path
     d="M 0,0 12.801,3.793 12.757,-14.685 0,-18.965 Z"
     style="fill:#f68d11;fill-opacity:1;fill-rule:nonzero;stroke:none"
     id="path34"
     inkscape:connector-curvature="0" /></g><g
   id="g36"
   transform="translate(650.7664,103.0576)"
   inkscape:export-xdpi="90"
   inkscape:export-ydpi="90"><path
     d="M 0,0 -11.931,3.687 -23.706,0 -11.914,-3.161 Z"
     style="fill:#f68d11;fill-opacity:1;fill-rule:nonzero;stroke:none"
     id="path38"
     inkscape:connector-curvature="0" /></g><g
   id="g40"
   transform="translate(669.4783,78.2978)"
   inkscape:export-xdpi="90"
   inkscape:export-ydpi="90"><path
     d="M 0,0 -12.786,4.267 V 22.758 L 0.016,18.965 Z"
     style="fill:#f68d11;fill-opacity:1;fill-rule:nonzero;stroke:none"
     id="path42"
     inkscape:connector-curvature="0" /></g><g
   id="g44"
   transform="translate(672.8128,97.2625)"
   inkscape:export-xdpi="90"
   inkscape:export-ydpi="90"><path
     d="M 0,0 12.801,3.793 12.757,-14.685 0,-18.965 Z"
     style="fill:#f68d11;fill-opacity:1;fill-rule:nonzero;stroke:none"
     id="path46"
     inkscape:connector-curvature="0" /></g><g
   id="g48"
   transform="translate(683.0063,103.0576)"
   inkscape:export-xdpi="90"
   inkscape:export-ydpi="90"><path
     d="M 0,0 -11.931,3.687 -23.706,0 -11.914,-3.161 Z"
     style="fill:#f68d11;fill-opacity:1;fill-rule:nonzero;stroke:none"
     id="path50"
     inkscape:connector-curvature="0" /></g><g
   id="g52"
   transform="translate(588.894,70.2378)"
   inkscape:export-xdpi="90"
   inkscape:export-ydpi="90"><path
     d="m 0,0 -12.801,3.793 v -18.491 l 12.785,-4.267 z"
     style="fill:#f68d11;fill-opacity:1;fill-rule:nonzero;stroke:none"
     id="path54"
     inkscape:connector-curvature="0" /></g><g
   id="g56"
   transform="translate(592.2128,70.2378)"
   inkscape:export-xdpi="90"
   inkscape:export-ydpi="90"><path
     d="M 0,0 12.801,3.793 12.757,-14.685 0,-18.965 Z"
     style="fill:#f68d11;fill-opacity:1;fill-rule:nonzero;stroke:none"
     id="path58"
     inkscape:connector-curvature="0" /></g><g
   id="g60"
   transform="translate(602.4064,76.0329)"
   inkscape:export-xdpi="90"
   inkscape:export-ydpi="90"><path
     d="M 0,0 -11.931,3.687 -23.706,0 -11.914,-3.161 Z"
     style="fill:#f68d11;fill-opacity:1;fill-rule:nonzero;stroke:none"
     id="path62"
     inkscape:connector-curvature="0" /></g><g
   id="g64"
   transform="translate(621.1185,51.2731)"
   inkscape:export-xdpi="90"
   inkscape:export-ydpi="90"><path
     d="M 0,0 -12.786,4.267 V 22.758 L 0.016,18.965 Z"
     style="fill:#f68d11;fill-opacity:1;fill-rule:nonzero;stroke:none"
     id="path66"
     inkscape:connector-curvature="0" /></g><g
   id="g68"
   transform="translate(624.4528,70.2378)"
   inkscape:export-xdpi="90"
   inkscape:export-ydpi="90"><path
     d="M 0,0 12.801,3.793 12.757,-14.685 0,-18.965 Z"
     style="fill:#f68d11;fill-opacity:1;fill-rule:nonzero;stroke:none"
     id="path70"
     inkscape:connector-curvature="0" /></g><g
   id="g72"
   transform="translate(634.6464,76.0329)"
   inkscape:export-xdpi="90"
   inkscape:export-ydpi="90"><path
     d="M 0,0 -11.931,3.687 -23.706,0 -11.914,-3.161 Z"
     style="fill:#f68d11;fill-opacity:1;fill-rule:nonzero;stroke:none"
     id="path74"
     inkscape:connector-curvature="0" /></g><g
   id="g76"
   transform="translate(604.9985,24.2484)"
   inkscape:export-xdpi="90"
   inkscape:export-ydpi="90"><path
     d="M 0,0 -12.786,4.267 V 22.758 L 0.016,18.965 Z"
     style="fill:#f68d11;fill-opacity:1;fill-rule:nonzero;stroke:none"
     id="path78"
     inkscape:connector-curvature="0" /></g><g
   id="g80"
   transform="translate(608.3328,43.2131)"
   inkscape:export-xdpi="90"
   inkscape:export-ydpi="90"><path
     d="M 0,0 12.801,3.793 12.757,-14.685 0,-18.965 Z"
     style="fill:#f68d11;fill-opacity:1;fill-rule:nonzero;stroke:none"
     id="path82"
     inkscape:connector-curvature="0" /></g><g
   id="g84"
   transform="translate(618.5264,49.0082)"
   inkscape:export-xdpi="90"
   inkscape:export-ydpi="90"><path
     d="M 0,0 -11.931,3.687 -23.706,0 -11.914,-3.161 Z"
     style="fill:#f68d11;fill-opacity:1;fill-rule:nonzero;stroke:none"
     id="path86"
     inkscape:connector-curvature="0" /></g><g
   id="g96"
   transform="translate(661.6189,40.5936)"
   inkscape:export-xdpi="90"
   inkscape:export-ydpi="90"><path
     d="m 0,0 -0.941,-0.003 c -0.345,0 -0.785,-0.233 -0.893,-0.612 L -4.688,-10.668 -7.51,-0.636 c -0.085,0.314 -0.381,0.633 -0.784,0.633 h -1.114 c -0.401,0 -0.694,-0.323 -0.775,-0.64 l -2.625,-9.927 -2.713,9.958 c -0.107,0.364 -0.558,0.609 -0.912,0.609 l -1.353,0.002 c -0.29,0 -0.559,-0.124 -0.703,-0.324 -0.097,-0.136 -0.124,-0.29 -0.079,-0.423 l 4.191,-14.838 c 0.092,-0.312 0.363,-0.626 0.758,-0.626 h 1.346 c 0.364,0 0.682,0.265 0.774,0.641 l 2.58,9.883 2.807,-9.895 c 0.085,-0.303 0.356,-0.629 0.754,-0.629 h 1.324 c 0.368,0 0.678,0.256 0.769,0.631 l 4.034,14.827 c 0.048,0.142 0.02,0.301 -0.076,0.435 C 0.551,-0.122 0.286,0 0,0"
     style="fill:#100f0d;fill-opacity:1;fill-rule:nonzero;stroke:none"
     id="path98"
     inkscape:connector-curvature="0" /></g><g
   id="g100"
   transform="translate(669.796,40.6997)"
   inkscape:export-xdpi="90"
   inkscape:export-ydpi="90"><path
     d="m 0,0 c -4.803,0 -6.991,-4.246 -6.991,-8.192 0,-4.923 2.72,-8.105 6.928,-8.105 3.013,0 5.309,1.522 6.3,4.181 0.054,0.152 0.037,0.317 -0.046,0.465 -0.101,0.18 -0.293,0.315 -0.519,0.365 l -1.333,0.255 c -0.358,0.056 -0.768,-0.156 -0.904,-0.463 -0.648,-1.478 -1.828,-2.316 -3.31,-2.36 -1.425,0.044 -2.734,0.891 -3.334,2.157 -0.488,1.033 -0.56,2.052 -0.568,3.088 l 9.654,0.003 c 0.202,0 0.412,0.089 0.56,0.239 0.123,0.125 0.191,0.279 0.189,0.434 C 6.603,-4.098 4.85,0 0,0 m 3.462,-6.406 h -7.111 c 0.163,1.996 1.459,4.065 3.654,4.145 2.336,-0.077 3.405,-2.098 3.457,-4.145"
     style="fill:#100f0d;fill-opacity:1;fill-rule:nonzero;stroke:none"
     id="path102"
     inkscape:connector-curvature="0" /></g><g
   id="g104"
   transform="translate(685.4167,40.8374)"
   inkscape:export-xdpi="90"
   inkscape:export-ydpi="90"><path
     d="M 0,0 H -0.256 C -1.85,0 -3.103,-0.662 -4.065,-2.02 l -0.002,6.255 c 0,0.352 -0.362,0.672 -0.763,0.672 h -1.388 c -0.363,0 -0.769,-0.288 -0.77,-0.672 v -19.526 c 0.002,-0.355 0.365,-0.677 0.765,-0.677 l 0.407,0.002 c 0.385,0 0.66,0.311 0.752,0.599 l 0.434,1.378 c 1.009,-1.433 2.529,-2.274 4.155,-2.274 h 0.249 c 4.283,0 6.201,4.166 6.201,8.295 0,2.056 -0.507,4.021 -1.39,5.392 C 3.564,-0.987 1.807,0 0,0 m 2.882,-8.353 c 0,-0.908 -0.165,-5.444 -3.387,-5.561 -1.08,0.042 -2.172,0.677 -2.782,1.615 -0.449,0.71 -0.711,1.692 -0.778,2.906 v 2.668 c 0.053,2.045 1.492,4.288 3.549,4.375 3.234,-0.127 3.398,-5.023 3.398,-6.003 z"
     style="fill:#100f0d;fill-opacity:1;fill-rule:nonzero;stroke:none"
     id="path106"
     inkscape:connector-curvature="0" /></g><g
   id="g108"
   transform="translate(706.5922,32.9238)"
   inkscape:export-xdpi="90"
   inkscape:export-ydpi="90"><path
     d="M 0,0 C -0.903,0.649 -1.988,0.865 -3.075,1.082 L -5.16,1.469 c -1.496,0.246 -2.361,0.647 -2.361,1.967 0,1.395 1.446,1.929 2.672,1.962 1.497,-0.038 2.623,-0.706 3.17,-1.881 0.13,-0.277 0.417,-0.463 0.717,-0.463 0.051,0 0.103,0.006 0.152,0.016 L 0.491,3.358 C 0.704,3.405 0.902,3.55 1.008,3.739 1.093,3.89 1.111,4.054 1.061,4.2 0.265,6.519 -1.757,7.745 -4.814,7.745 -7.577,7.738 -10.529,6.51 -10.529,3.079 c 0,-2.345 1.473,-3.834 4.383,-4.427 l 2.333,-0.445 c 1.281,-0.245 2.591,-0.681 2.591,-2.056 0,-2.037 -2.369,-2.244 -3.086,-2.259 -1.607,0.034 -3.427,0.751 -3.869,2.27 -0.088,0.333 -0.508,0.569 -0.877,0.493 l -1.36,-0.281 c -0.205,-0.043 -0.393,-0.176 -0.502,-0.356 -0.091,-0.15 -0.117,-0.318 -0.075,-0.471 0.702,-2.519 3.134,-4.038 6.505,-4.063 l 0.075,-10e-4 c 3.01,0 6.227,1.289 6.227,4.906 C 1.816,-2.139 1.154,-0.823 0,0"
     style="fill:#100f0d;fill-opacity:1;fill-rule:nonzero;stroke:none"
     id="path110"
     inkscape:connector-curvature="0" /></g><g
   id="g112"
   transform="translate(716.892,40.686)"
   inkscape:export-xdpi="90"
   inkscape:export-ydpi="90"><path
     d="m 0,0 c -4.804,0 -6.992,-4.247 -6.992,-8.192 0,-4.923 2.72,-8.104 6.929,-8.104 3.012,0 5.309,1.522 6.301,4.18 0.053,0.153 0.036,0.318 -0.047,0.466 -0.101,0.18 -0.293,0.316 -0.519,0.365 l -1.335,0.255 c -0.313,0.05 -0.748,-0.111 -0.902,-0.464 -0.648,-1.477 -1.829,-2.315 -3.309,-2.361 -1.427,0.046 -2.736,0.893 -3.333,2.158 -0.489,1.031 -0.561,2.051 -0.568,3.089 l 9.652,0.002 c 0.201,0 0.409,0.089 0.557,0.238 0.124,0.125 0.192,0.279 0.19,0.435 C 6.602,-4.098 4.851,0 0,0 M 3.463,-6.407 H -3.65 c 0.163,1.998 1.459,4.068 3.654,4.144 2.335,-0.074 3.405,-2.096 3.459,-4.144"
     style="fill:#100f0d;fill-opacity:1;fill-rule:nonzero;stroke:none"
     id="path114"
     inkscape:connector-curvature="0" /></g><g
   id="g116"
   transform="translate(732.6317,40.5055)"
   inkscape:export-xdpi="90"
   inkscape:export-ydpi="90"><path
     d="m 0,0 c -0.188,0.021 -0.369,0.031 -0.545,0.031 -1.62,0 -2.936,-0.881 -3.849,-2.564 l 0.003,1.474 c -0.001,0.357 -0.357,0.67 -0.762,0.67 h -1.205 c -0.396,0 -0.745,-0.315 -0.748,-0.676 L -7.107,-15.38 c 0,-0.359 0.348,-0.675 0.747,-0.675 l 1.406,0.001 c 0.366,0 0.778,0.287 0.782,0.674 l 10e-4,7.217 c 0,1.19 0.111,2.087 0.679,3.147 0.812,1.511 1.946,2.252 3.467,2.264 0.382,0.003 0.716,0.336 0.716,0.713 V -0.7 C 0.691,-0.35 0.387,-0.042 0,0"
     style="fill:#100f0d;fill-opacity:1;fill-rule:nonzero;stroke:none"
     id="path118"
     inkscape:connector-curvature="0" /></g><g
   id="g120"
   transform="translate(747.4009,40.7866)"
   inkscape:export-xdpi="90"
   inkscape:export-ydpi="90"><path
     d="m 0,0 -1.111,-0.001 c -0.348,0 -0.794,-0.249 -0.902,-0.616 l -3.601,-11.317 -3.677,11.306 c -0.109,0.375 -0.556,0.627 -0.906,0.627 l -1.586,0.002 c -0.291,0 -0.573,-0.13 -0.717,-0.33 -0.097,-0.135 -0.123,-0.287 -0.076,-0.429 l 5.033,-14.93 c 0.097,-0.295 0.353,-0.64 0.759,-0.64 h 1.92 c 0.352,0 0.641,0.24 0.773,0.642 L 0.791,-0.763 C 0.84,-0.621 0.814,-0.468 0.717,-0.334 0.572,-0.131 0.291,0 0,0"
     style="fill:#100f0d;fill-opacity:1;fill-rule:nonzero;stroke:none"
     id="path122"
     inkscape:connector-curvature="0" /></g><g
   id="g124"
   transform="translate(751.0507,46.5252)"
   inkscape:export-xdpi="90"
   inkscape:export-ydpi="90"><path
     d="m 0,0 c -1.023,0 -1.855,-0.834 -1.855,-1.861 0,-1.026 0.832,-1.86 1.855,-1.86 1.024,0 1.857,0.834 1.857,1.86 C 1.857,-0.834 1.024,0 0,0"
     style="fill:#100f0d;fill-opacity:1;fill-rule:nonzero;stroke:none"
     id="path126"
     inkscape:connector-curvature="0" /></g><g
   id="g128"
   transform="translate(751.8145,40.8775)"
   inkscape:export-xdpi="90"
   inkscape:export-ydpi="90"><path
     d="m 0,0 -1.523,0.002 c -0.415,0 -0.792,-0.336 -0.792,-0.703 l -0.008,-15.2 c 0,-0.184 0.095,-0.366 0.259,-0.502 0.15,-0.123 0.343,-0.194 0.535,-0.194 L 0.006,-16.6 h 0.001 c 0.42,0.004 0.79,0.33 0.79,0.698 V -0.701 C 0.797,-0.328 0.424,0 0,0"
     style="fill:#100f0d;fill-opacity:1;fill-rule:nonzero;stroke:none"
     id="path130"
     inkscape:connector-curvature="0" /></g><g
   id="g132"
   transform="translate(766.0508,30.5703)"
   inkscape:export-xdpi="90"
   inkscape:export-ydpi="90"><path
     d="m 0,0 -1.272,-0.005 c -0.355,0 -0.653,-0.213 -0.785,-0.584 -0.465,-2.004 -1.517,-3.043 -3.113,-3.089 -3.109,0.092 -3.35,4.425 -3.35,5.75 0,2.644 0.916,5.497 3.472,5.572 1.542,-0.047 2.665,-1.153 3.001,-2.956 0.064,-0.368 0.346,-0.646 0.732,-0.695 L 0.046,3.98 c 0.407,0.044 0.726,0.352 0.723,0.734 -0.481,3.257 -2.738,5.363 -5.755,5.363 l -0.105,-0.003 -0.118,0.003 c -4.387,0 -6.351,-4.095 -6.351,-8.153 0,-3.72 1.656,-8.065 6.327,-8.065 h 0.223 c 2.942,0 5.162,2.062 5.798,5.405 0.014,0.159 -0.041,0.319 -0.154,0.448 C 0.488,-0.12 0.256,-0.012 0,0"
     style="fill:#100f0d;fill-opacity:1;fill-rule:nonzero;stroke:none"
     id="path134"
     inkscape:connector-curvature="0" /></g><g
   id="g136"
   transform="translate(775.1511,40.686)"
   inkscape:export-xdpi="90"
   inkscape:export-ydpi="90"><path
     d="m 0,0 c -4.804,0 -6.991,-4.247 -6.991,-8.192 0,-4.923 2.72,-8.104 6.929,-8.104 3.011,0 5.306,1.521 6.3,4.18 0.052,0.153 0.035,0.319 -0.048,0.466 -0.103,0.182 -0.289,0.314 -0.519,0.365 l -1.333,0.255 c -0.314,0.05 -0.748,-0.111 -0.902,-0.464 -0.65,-1.477 -1.832,-2.315 -3.311,-2.361 -1.427,0.046 -2.735,0.893 -3.332,2.158 -0.489,1.032 -0.562,2.052 -0.569,3.089 l 9.653,0.001 c 0.203,0 0.413,0.09 0.561,0.24 0.123,0.126 0.19,0.281 0.187,0.434 C 6.603,-4.098 4.851,0 0,0 m 3.463,-6.407 h -7.114 c 0.163,1.998 1.459,4.068 3.656,4.144 2.335,-0.074 3.405,-2.096 3.458,-4.144"
     style="fill:#100f0d;fill-opacity:1;fill-rule:nonzero;stroke:none"
     id="path138"
     inkscape:connector-curvature="0" /></g><g
   id="g140"
   transform="translate(793.8697,32.9238)"
   inkscape:export-xdpi="90"
   inkscape:export-ydpi="90"><path
     d="m 0,0 c -0.904,0.649 -1.991,0.866 -3.076,1.082 l -2.085,0.387 c -1.494,0.246 -2.359,0.647 -2.359,1.967 0,1.8 2.233,1.95 2.669,1.962 1.498,-0.038 2.624,-0.706 3.17,-1.882 0.131,-0.276 0.42,-0.462 0.719,-0.462 0.052,0 0.104,0.006 0.154,0.016 l 1.3,0.288 C 0.705,3.405 0.902,3.551 1.008,3.74 1.093,3.89 1.111,4.054 1.061,4.2 0.266,6.519 -1.756,7.745 -4.815,7.745 -7.577,7.738 -10.528,6.51 -10.528,3.079 c 0,-2.346 1.473,-3.835 4.382,-4.427 l 2.334,-0.445 c 1.281,-0.245 2.591,-0.681 2.591,-2.056 0,-2.037 -2.37,-2.244 -3.086,-2.259 -1.49,0.032 -3.397,0.647 -3.868,2.268 -0.086,0.335 -0.506,0.571 -0.881,0.495 l -1.358,-0.281 c -0.206,-0.044 -0.394,-0.178 -0.503,-0.358 -0.091,-0.15 -0.117,-0.317 -0.074,-0.469 0.7,-2.519 3.132,-4.038 6.503,-4.063 l 0.075,-10e-4 c 3.011,0 6.228,1.289 6.228,4.906 C 1.815,-2.138 1.154,-0.822 0,0"
     style="fill:#100f0d;fill-opacity:1;fill-rule:nonzero;stroke:none"
     id="path142"
     inkscape:connector-curvature="0" /></g><g
   id="g144"
   transform="translate(731.9424,70.142)"
   inkscape:export-xdpi="90"
   inkscape:export-ydpi="90"><path
     d="m 0,0 v 3.452 c 0.002,0.523 0.399,0.874 0.876,0.874 h 15.463 c 0.494,0 0.892,-0.36 0.892,-0.871 V 0.495 C 17.227,0 16.808,-0.648 16.066,-1.677 L 8.057,-13.113 c 2.972,0.071 6.118,-0.374 8.819,-1.892 0.61,-0.343 0.772,-0.85 0.822,-1.346 v -3.683 c 0,-0.508 -0.556,-1.095 -1.139,-0.789 -4.76,2.494 -11.076,2.766 -16.34,-0.029 -0.538,-0.287 -1.101,0.291 -1.101,0.799 v 3.499 c 0,0.559 0.012,1.518 0.575,2.372 L 8.974,-0.869 0.895,-0.868 C 0.4,-0.868 0.005,-0.516 0,0"
     style="fill:#100f0d;fill-opacity:1;fill-rule:nonzero;stroke:none"
     id="path146"
     inkscape:connector-curvature="0" /></g><g
   id="g148"
   transform="translate(675.5366,48.5925)"
   inkscape:export-xdpi="90"
   inkscape:export-ydpi="90"><path
     d="m 0,0 h -4.706 c -0.447,0.029 -0.805,0.367 -0.84,0.797 l 0.003,24.145 c 0,0.483 0.407,0.869 0.908,0.869 l 4.381,0.003 C 0.205,25.788 0.572,25.442 0.603,25.003 V 21.848 H 0.69 c 1.141,3.05 3.293,4.471 6.191,4.471 2.942,0 4.787,-1.421 6.104,-4.471 1.143,3.05 3.733,4.471 6.502,4.471 1.976,0 4.125,-0.812 5.443,-2.64 1.493,-2.034 1.185,-4.979 1.185,-7.571 L 26.112,0.87 C 26.112,0.388 25.706,0 25.206,0 h -4.699 c -0.473,0.029 -0.845,0.407 -0.845,0.868 v 12.801 c 0,1.016 0.086,3.557 -0.133,4.522 -0.352,1.627 -1.406,2.082 -2.766,2.082 -1.143,0 -2.329,-0.762 -2.812,-1.979 -0.483,-1.221 -0.438,-3.254 -0.438,-4.625 V 0.87 C 13.513,0.388 13.106,0 12.605,0 H 7.906 C 7.435,0.029 7.062,0.407 7.062,0.868 L 7.056,13.669 c 0,2.693 0.44,6.655 -2.897,6.655 -3.381,0 -3.249,-3.861 -3.249,-6.655 L 0.907,0.87 C 0.909,0.388 0.502,0 0,0"
     style="fill:#100f0d;fill-opacity:1;fill-rule:nonzero;stroke:none"
     id="path150"
     inkscape:connector-curvature="0" /></g><g
   id="g152"
   transform="translate(762.4869,74.9112)"
   inkscape:export-xdpi="90"
   inkscape:export-ydpi="90"><path
     d="m 0,0 c 6.982,0 10.759,-5.995 10.759,-13.613 0,-7.369 -4.173,-13.213 -10.759,-13.213 -6.851,0 -10.585,5.997 -10.585,13.465 C -10.585,-5.841 -6.809,0 0,0 m 0.043,-4.927 c -3.471,0 -3.69,-4.725 -3.69,-7.673 0,-2.946 -0.043,-9.246 3.647,-9.246 3.646,0 3.82,5.081 3.82,8.18 0,2.032 -0.086,4.47 -0.701,6.401 -0.529,1.678 -1.582,2.338 -3.076,2.338"
     style="fill:#100f0d;fill-opacity:1;fill-rule:nonzero;stroke:none"
     id="path154"
     inkscape:connector-curvature="0" /></g><g
   id="g156"
   transform="translate(782.3017,48.5925)"
   inkscape:export-xdpi="90"
   inkscape:export-ydpi="90"><path
     d="M 0,0 H -4.688 C -5.16,0.029 -5.532,0.407 -5.532,0.868 l -0.007,24.156 c 0.039,0.44 0.43,0.787 0.902,0.787 l 4.365,0.003 C 0.14,25.791 0.477,25.511 0.564,25.137 v -3.694 h 0.089 c 1.316,3.303 3.161,4.876 6.409,4.876 2.109,0 4.174,-0.76 5.491,-2.844 1.229,-1.93 1.229,-5.181 1.229,-7.519 V 0.761 C 13.729,0.333 13.347,0 12.883,0 H 8.164 C 7.729,0.028 7.379,0.35 7.327,0.761 v 13.111 c 0,2.642 0.308,6.505 -2.943,6.505 -1.142,0 -2.194,-0.764 -2.722,-1.931 C 1.003,16.973 0.916,15.499 0.916,13.872 V 0.87 C 0.907,0.388 0.501,0 0,0"
     style="fill:#100f0d;fill-opacity:1;fill-rule:nonzero;stroke:none"
     id="path158"
     inkscape:connector-curvature="0" /></g><g
   id="g160"
   transform="translate(718.7354,55.1348)"
   inkscape:export-xdpi="90"
   inkscape:export-ydpi="90"><path
     d="m 0,0 c -0.748,-1.325 -1.937,-2.139 -3.258,-2.139 -1.802,0 -2.858,1.374 -2.858,3.412 0,4.006 3.595,4.735 6.997,4.735 V 4.991 C 0.881,3.157 0.924,1.628 0,0 M 9.26,-2.116 C 8.398,-0.928 7.482,0.039 7.482,2.244 v 7.329 c 0,3.107 0.22,5.958 -2.068,8.097 -1.804,1.731 -4.798,2.342 -7.085,2.342 -4.477,0 -9.473,-1.672 -10.52,-7.205 -0.112,-0.587 0.315,-0.895 0.701,-0.982 l 4.559,-0.494 c 0.426,0.021 0.737,0.441 0.817,0.864 0.392,1.906 1.987,2.826 3.781,2.826 0.97,0 2.07,-0.356 2.641,-1.221 0.661,-0.967 0.573,-2.292 0.573,-3.411 V 9.778 c -2.728,-0.306 -6.294,-0.51 -8.846,-1.631 -2.949,-1.273 -5.016,-3.871 -5.016,-7.688 0,-4.889 3.08,-7.333 7.042,-7.333 3.344,0 5.172,0.789 7.755,3.419 0.854,-1.235 1.134,-1.837 2.697,-3.136 0.351,-0.187 0.798,-0.169 1.11,0.11 l 0.013,-0.011 c 0.938,0.838 2.645,2.32 3.606,3.125 0.383,0.314 0.316,0.822 0.018,1.251"
     style="fill:#100f0d;fill-opacity:1;fill-rule:nonzero;stroke:none"
     id="path162"
     inkscape:connector-curvature="0" /></g><g
   id="g164"
   transform="translate(657.065,55.1348)"
   inkscape:export-xdpi="90"
   inkscape:export-ydpi="90"><path
     d="m 0,0 c -0.748,-1.325 -1.938,-2.139 -3.256,-2.139 -1.807,0 -2.862,1.374 -2.862,3.412 0,4.006 3.594,4.735 6.997,4.735 V 4.991 C 0.879,3.157 0.923,1.628 0,0 M 9.256,-2.116 C 8.397,-0.928 7.48,0.039 7.48,2.244 v 7.329 c 0,3.107 0.221,5.958 -2.068,8.097 -1.804,1.731 -4.796,2.342 -7.086,2.342 -4.477,0 -9.473,-1.672 -10.52,-7.205 -0.111,-0.587 0.317,-0.895 0.702,-0.982 l 4.56,-0.494 c 0.426,0.021 0.736,0.441 0.817,0.864 0.391,1.906 1.988,2.826 3.782,2.826 0.967,0 2.068,-0.356 2.64,-1.221 0.661,-0.967 0.572,-2.292 0.572,-3.411 V 9.778 c -2.728,-0.306 -6.293,-0.51 -8.846,-1.631 -2.948,-1.273 -5.018,-3.871 -5.018,-7.688 0,-4.889 3.081,-7.333 7.042,-7.333 3.346,0 5.175,0.789 7.756,3.419 0.855,-1.235 1.135,-1.837 2.697,-3.136 0.352,-0.187 0.802,-0.169 1.113,0.11 v 0 0 l 0.011,-0.011 c 0.938,0.838 2.646,2.32 3.607,3.125 0.383,0.314 0.315,0.822 0.015,1.251"
     style="fill:#100f0d;fill-opacity:1;fill-rule:nonzero;stroke:none"
     id="path166"
     inkscape:connector-curvature="0" /></g></g></svg>